<svg width="375" height="444" viewBox="0 0 375 444" fill="none" xmlns="http://www.w3.org/2000/svg">
<g opacity="0.05">
<path d="M-4.75026 307.293L101.014 307.293L101.014 414.649C101.014 430.822 114.11 444 130.33 444L246.066 444C262.22 444 275.382 430.888 275.382 414.649L275.382 356.944L230.244 356.944L230.244 398.808L146.218 398.808L146.218 181.035L183.312 181.035L183.312 135.843L101.08 135.843L101.08 262.101L11.1377 262.101L11.1377 181.035L56.1423 181.035L56.1423 135.843L-4.68375 135.843C-20.8376 135.843 -34 148.955 -34 165.195L-34 277.942C-34 294.115 -20.9041 307.293 -4.75026 307.293Z" fill="#247CFF"/>
<path d="M146.152 46.1918L230.178 46.1918L230.178 262.101L192.419 262.101L192.419 307.293L275.316 307.293L275.316 181.102L363.862 181.102L363.862 262.101L319.589 262.101L319.589 307.293L379.684 307.293C395.904 307.293 409 294.115 409 277.941L409 165.195C409 149.022 395.904 135.843 379.684 135.843L275.316 135.843L275.316 30.2848C275.316 14.1116 262.22 0.933398 245.999 0.933396L130.264 0.933386C114.11 0.933385 100.947 14.045 100.947 30.2848L100.947 90.9843L146.085 90.9843L146.085 46.1918L146.152 46.1918Z" fill="#247CFF"/>
</g>
</svg>
